Coordinates
version=1
nRows=27
nColumns=38
inDegrees=no

Units are S.I. units (second, meters, Newtons, ...)
If the header above contains a line with 'inDegrees', this indicates whether rotational values are in degrees (yes) or radians (no).

endheader
time	pelvis_tilt	pelvis_list	pelvis_rotation	pelvis_tx	pelvis_ty	pelvis_tz	hip_flexion_r	hip_adduction_r	hip_rotation_r	knee_angle_r	ankle_angle_r	subtalar_angle_r	mtp_angle_r	hip_flexion_l	hip_adduction_l	hip_rotation_l	knee_angle_l	ankle_angle_l	subtalar_angle_l	mtp_angle_l	lumbar_extension	lumbar_bending	lumbar_rotation	arm_flex_r	arm_add_r	arm_rot_r	elbow_flex_r	pro_sup_r	wrist_flex_r	wrist_dev_r	arm_flex_l	arm_add_l	arm_rot_l	elbow_flex_l	pro_sup_l	wrist_flex_l	wrist_dev_l
0	-0.337689	1.4729	-1.02082	0.787233	0.862613	1.00502	0.403479	0.00265202	-0.128858	0.417945	-0.0158212	0	0	-0.253995	-0.191684	-0.27275	0.649917	-0.0751963	0	0	-0.326194	0.117429	0.026726	-0.340183	-0.329297	0.182518	0.698622	0.952468	0	0	0.710775	-0.652029	1.08515	0.716253	1.20375	0	0
0.01	-0.463255	1.48043	-0.895584	0.786773	0.85003	1.00447	0.415991	0.0172544	-0.102363	0.427851	-0.0329278	0	0	-0.242835	-0.200235	-0.264104	0.664079	-0.0876049	0	0	-0.311253	0.12855	0.0277532	-0.337779	-0.330531	0.187662	0.689025	0.941646	0	0	0.678612	-0.649876	1.04307	0.722726	1.22896	0	0
0.02	-0.538179	1.48185	-0.820988	0.786265	0.837002	1.00449	0.425345	0.0229314	-0.103429	0.454153	-0.0564373	0	0	-0.240474	-0.205872	-0.25145	0.676524	-0.100507	0	0	-0.304036	0.138408	0.0315928	-0.339922	-0.330065	0.184884	0.684269	0.933849	0	0	0.652096	-0.647327	1.01483	0.729521	1.24328	0	0
0.03	-0.61551	1.48218	-0.746539	0.785495	0.823564	1.0044	0.435126	0.0294727	-0.106827	0.483872	-0.0766789	0	0	-0.237388	-0.21245	-0.242744	0.694202	-0.113922	0	0	-0.296774	0.148331	0.0367619	-0.343282	-0.330288	0.182145	0.681734	0.927161	0	0	0.621375	-0.646749	0.98265	0.739469	1.2604	0	0
0.04	-0.66016	1.48067	-0.706065	0.784626	0.810041	1.00466	0.440364	0.0356214	-0.110409	0.511246	-0.0823243	0	0	-0.236203	-0.217046	-0.235521	0.714537	-0.128569	0	0	-0.293052	0.156921	0.0435944	-0.346067	-0.330106	0.179969	0.678314	0.923105	0	0	0.592968	-0.646632	0.958165	0.74969	1.26924	0	0
0.05	-0.683217	1.47851	-0.688177	0.783569	0.796515	1.00516	0.442264	0.041993	-0.113353	0.535583	-0.0832101	0	0	-0.234504	-0.219751	-0.228097	0.738389	-0.145192	0	0	-0.291521	0.164	0.0505631	-0.347612	-0.329516	0.178863	0.674027	0.919805	0	0	0.56467	-0.648011	0.936758	0.760988	1.27325	0	0
0.06	-0.699499	1.47654	-0.677481	0.782242	0.782985	1.00573	0.441857	0.0491954	-0.116554	0.557293	-0.0851472	0	0	-0.229623	-0.221778	-0.218938	0.766558	-0.164752	0	0	-0.290473	0.169499	0.0563591	-0.347667	-0.328331	0.179407	0.669154	0.916262	0	0	0.535187	-0.651926	0.91677	0.773471	1.27834	0	0
0.07	-0.713486	1.47427	-0.668082	0.780837	0.769636	1.00637	0.437808	0.056955	-0.122471	0.572559	-0.0863019	0	0	-0.220767	-0.22392	-0.206315	0.799283	-0.186388	0	0	-0.290018	0.174803	0.0604546	-0.346967	-0.326965	0.180562	0.665265	0.912201	0	0	0.505218	-0.656932	0.897403	0.786655	1.28076	0	0
0.08	-0.725416	1.47129	-0.660217	0.779383	0.756515	1.00711	0.429905	0.0654438	-0.130156	0.579813	-0.0834967	0	0	-0.208908	-0.226096	-0.191642	0.835709	-0.208523	0	0	-0.290667	0.180029	0.0639592	-0.345895	-0.325603	0.182072	0.662526	0.907527	0	0	0.475165	-0.662498	0.879293	0.799909	1.28261	0	0
0.09	-0.734934	1.4678	-0.654711	0.777929	0.743664	1.00789	0.419632	0.0742761	-0.138208	0.582345	-0.0791922	0	0	-0.194685	-0.227771	-0.175916	0.875356	-0.226447	0	0	-0.292343	0.185545	0.0693618	-0.346253	-0.324385	0.182056	0.661845	0.903435	0	0	0.448448	-0.665803	0.866059	0.810056	1.2823	0	0
0.1	-0.746107	1.46467	-0.647417	0.776499	0.731127	1.00859	0.409654	0.0826672	-0.14601	0.584888	-0.0733713	0	0	-0.177247	-0.22865	-0.15938	0.918388	-0.243815	0	0	-0.294565	0.191145	0.0739089	-0.346388	-0.324011	0.181935	0.663204	0.899175	0	0	0.421246	-0.669541	0.852798	0.820466	1.27955	0	0
0.11	-0.75743	1.46202	-0.640098	0.775097	0.718935	1.00923	0.400092	0.0906277	-0.151301	0.588294	-0.0660524	0	0	-0.157163	-0.228479	-0.142043	0.963907	-0.258296	0	0	-0.297293	0.196506	0.078098	-0.346205	-0.324477	0.18218	0.666055	0.895143	0	0	0.394013	-0.672909	0.840019	0.830072	1.27526	0	0
0.12	-0.764368	1.45987	-0.637375	0.773891	0.707014	1.00991	0.389684	0.0973744	-0.154042	0.591733	-0.058448	0	0	-0.13572	-0.227361	-0.1262	1.00979	-0.26767	0	0	-0.300314	0.201148	0.0832591	-0.346008	-0.325274	0.182408	0.668678	0.891853	0	0	0.368535	-0.674376	0.829872	0.837177	1.27144	0	0
0.13	-0.772007	1.45882	-0.633926	0.772861	0.695314	1.01052	0.379154	0.102646	-0.154043	0.595302	-0.0486	0	0	-0.111941	-0.225308	-0.111423	1.05616	-0.27106	0	0	-0.302695	0.205187	0.0877146	-0.345822	-0.3268	0.182618	0.672078	0.888358	0	0	0.34338	-0.67509	0.821489	0.842535	1.26789	0	0
0.14	-0.773571	1.45908	-0.637196	0.771764	0.683809	1.01113	0.368279	0.106749	-0.149998	0.598945	-0.0341387	0	0	-0.0872636	-0.221814	-0.0987341	1.10172	-0.263788	0	0	-0.305035	0.207376	0.0916902	-0.345052	-0.328595	0.183398	0.67572	0.884161	0	0	0.31884	-0.675826	0.815241	0.846578	1.26372	0	0
0.15	-0.75458	1.45929	-0.661801	0.77059	0.672428	1.01202	0.354465	0.109987	-0.143722	0.600898	-0.0197715	0	0	-0.0649729	-0.21742	-0.0903625	1.14405	-0.246577	0	0	-0.309353	0.207379	0.0967235	-0.343545	-0.329932	0.184466	0.678078	0.880185	0	0	0.297409	-0.675929	0.813475	0.848166	1.26123	0	0
0.16	-0.72088	1.45907	-0.701554	0.769366	0.661112	1.01316	0.338683	0.112981	-0.13702	0.601539	-0.00421574	0	0	-0.0445365	-0.213121	-0.0867289	1.18325	-0.220922	0	0	-0.315053	0.205911	0.102295	-0.341534	-0.330952	0.185736	0.679554	0.875317	0	0	0.278769	-0.67584	0.816545	0.847682	1.25944	0	0
0.17	-0.677773	1.4583	-0.750888	0.768124	0.649873	1.01456	0.321521	0.115978	-0.130889	0.600743	0.00863501	0	0	-0.0251597	-0.209155	-0.0870808	1.21864	-0.19605	0	0	-0.321639	0.203414	0.108701	-0.339274	-0.331492	0.186738	0.679922	0.870122	0	0	0.262958	-0.67478	0.823194	0.84449	1.26024	0	0
0.18	-0.633051	1.45674	-0.801343	0.766921	0.63874	1.01613	0.302802	0.119416	-0.125065	0.597492	0.0195838	0	0	-0.00585627	-0.20595	-0.0895702	1.25062	-0.174414	0	0	-0.328491	0.200959	0.115154	-0.336877	-0.331883	0.18769	0.679404	0.864711	0	0	0.248938	-0.672394	0.831521	0.838779	1.26219	0	0
0.19	-0.592786	1.45452	-0.846319	0.765799	0.627789	1.01779	0.282603	0.12337	-0.119438	0.590641	0.0285561	0	0	0.014258	-0.20348	-0.0917705	1.27918	-0.157347	0	0	-0.335145	0.199219	0.121069	-0.334241	-0.332337	0.188718	0.678143	0.859151	0	0	0.236148	-0.668774	0.840529	0.830793	1.26524	0	0
0.2	-0.557637	1.45234	-0.885627	0.764731	0.617019	1.01946	0.26217	0.127022	-0.114726	0.581747	0.0343419	0	0	0.0353628	-0.201046	-0.0929169	1.30349	-0.145395	0	0	-0.341256	0.197659	0.126138	-0.330971	-0.332874	0.190087	0.675898	0.854865	0	0	0.222616	-0.664142	0.846834	0.82147	1.26869	0	0
0.21	-0.533969	1.45091	-0.914492	0.763563	0.60621	1.02104	0.240959	0.131257	-0.108001	0.568625	0.0404023	0	0	0.0572823	-0.199712	-0.0951825	1.32302	-0.133944	0	0	-0.345109	0.196134	0.132161	-0.327761	-0.333612	0.192836	0.672094	0.850176	0	0	0.209	-0.658185	0.853084	0.809277	1.27243	0	0
0.22	-0.516094	1.45017	-0.937574	0.762436	0.595509	1.02251	0.218611	0.135053	-0.100597	0.553644	0.0471944	0	0	0.0800899	-0.198456	-0.0963366	1.33787	-0.125478	0	0	-0.347898	0.194701	0.137963	-0.324804	-0.334873	0.196082	0.668514	0.846159	0	0	0.19465	-0.650915	0.856642	0.795842	1.27392	0	0
0.23	-0.501554	1.44974	-0.957248	0.761401	0.584948	1.02391	0.196417	0.138204	-0.0937459	0.537244	0.0532636	0	0	0.103165	-0.196959	-0.0960903	1.34796	-0.117942	0	0	-0.350168	0.193546	0.14324	-0.322327	-0.336744	0.199011	0.666	0.842713	0	0	0.179839	-0.64234	0.858374	0.78135	1.27248	0	0
0.24	-0.482907	1.44857	-0.980471	0.760536	0.574566	1.02535	0.172948	0.140591	-0.0882749	0.518892	0.0574956	0	0	0.125	-0.194799	-0.0942033	1.35315	-0.110808	0	0	-0.353714	0.192539	0.147858	-0.320322	-0.339202	0.201253	0.664989	0.839738	0	0	0.165446	-0.633426	0.859675	0.766736	1.26818	0	0
0.25	-0.46067	1.44675	-1.00828	0.759609	0.564206	1.02681	0.148345	0.142932	-0.0823609	0.49932	0.0599632	0	0	0.1447	-0.192666	-0.0936386	1.35324	-0.10388	0	0	-0.35843	0.191041	0.152923	-0.318932	-0.342176	0.203004	0.665524	0.83736	0	0	0.151245	-0.624508	0.860943	0.752057	1.26044	0	0
0.26	-0.440347	1.44567	-1.03511	0.758632	0.55391	1.02812	0.125442	0.144943	-0.0766065	0.481039	0.0613541	0	0	0.164268	-0.19039	-0.0949291	1.34916	-0.0968661	0	0	-0.362517	0.188839	0.158372	-0.318091	-0.34542	0.204246	0.667034	0.835619	0	0	0.137561	-0.615514	0.863243	0.737081	1.24953	0	0
